<svg width="24" height="24" viewBox="0 0 24 24" fill="none" xmlns="http://www.w3.org/2000/svg">
  <path d="M19.5398 5.0799C18.5372 4.08432 17.3458 3.29904 16.0355 2.77014C14.7253 2.24124 13.3226 1.97937 11.9098 1.9999C9.25763 1.99327 6.71146 3.04048 4.83141 4.91115C2.95135 6.78183 1.89143 9.32274 1.8848 11.9749C1.87817 14.6271 2.92538 17.1732 4.79605 19.0533C6.66673 20.9333 9.20763 21.9933 11.8598 21.9999C12.4313 22.0096 12.9898 21.8293 13.4477 21.4872C13.9057 21.1451 14.237 20.6607 14.3898 20.1099C14.4872 19.7121 14.4862 19.2967 14.3869 18.8994C14.2875 18.5021 14.0929 18.135 13.8198 17.8299C13.7566 17.758 13.7154 17.6696 13.7011 17.575C13.6867 17.4804 13.6998 17.3837 13.7387 17.2963C13.7777 17.2089 13.8409 17.1345 13.9208 17.082C14.0008 17.0295 14.0941 17.001 14.1898 16.9999H15.8398C17.3927 17.0072 18.8909 16.4266 20.0336 15.3749C21.1762 14.3232 21.8786 12.8781 21.9998 11.3299C22.037 10.1755 21.838 9.02569 21.415 7.95096C20.992 6.87622 20.3539 5.89923 19.5398 5.0799ZM6.8398 14.7399C6.59427 14.9068 6.30475 14.997 6.00789 14.9993C5.71103 15.0015 5.42019 14.9156 5.17219 14.7524C4.92419 14.5892 4.73018 14.3561 4.61473 14.0826C4.49928 13.8091 4.46758 13.5075 4.52364 13.216C4.5797 12.9245 4.72101 12.6562 4.92966 12.445C5.13832 12.2338 5.40494 12.0893 5.69577 12.0298C5.9866 11.9702 6.28856 11.9983 6.56342 12.1105C6.83828 12.2227 7.07367 12.4139 7.2398 12.6599C7.35112 12.8224 7.42911 13.0054 7.46927 13.1982C7.50943 13.391 7.51095 13.5899 7.47375 13.7834C7.43655 13.9768 7.36137 14.1609 7.25256 14.3251C7.14374 14.4893 7.00345 14.6303 6.8398 14.7399ZM8.2998 9.2499C8.15752 9.51342 7.93961 9.72831 7.67414 9.86692C7.40867 10.0055 7.10778 10.0615 6.81023 10.0276C6.51267 9.99374 6.23207 9.87158 6.00455 9.67685C5.77703 9.48211 5.613 9.22374 5.53359 8.93498C5.45419 8.64622 5.46303 8.34031 5.55899 8.05662C5.65494 7.77293 5.83362 7.52446 6.07201 7.3432C6.31041 7.16194 6.5976 7.05619 6.89661 7.03956C7.19563 7.02293 7.49278 7.09619 7.7498 7.2499C8.08144 7.44824 8.32375 7.76692 8.42621 8.13951C8.52867 8.51211 8.48339 8.90987 8.2998 9.2499ZM10.9998 6.9999C10.7031 6.9999 10.4131 6.91193 10.1664 6.7471C9.91977 6.58228 9.72751 6.34801 9.61398 6.07392C9.50045 5.79984 9.47074 5.49824 9.52862 5.20726C9.5865 4.91629 9.72936 4.64902 9.93914 4.43924C10.1489 4.22946 10.4162 4.0866 10.7072 4.02872C10.9981 3.97084 11.2997 4.00055 11.5738 4.11408C11.8479 4.22761 12.0822 4.41987 12.247 4.66654C12.4118 4.91322 12.4998 5.20323 12.4998 5.4999C12.4998 5.89772 12.3418 6.27926 12.0605 6.56056C11.7792 6.84186 11.3976 6.9999 10.9998 6.9999ZM16.7498 7.7999C16.4928 7.95361 16.1956 8.02687 15.8966 8.01024C15.5976 7.99361 15.3104 7.88786 15.072 7.7066C14.8336 7.52534 14.6549 7.27687 14.559 6.99318C14.463 6.70949 14.4542 6.40358 14.5336 6.11482C14.613 5.82606 14.777 5.56768 15.0045 5.37295C15.2321 5.17822 15.5127 5.05606 15.8102 5.02218C16.1078 4.9883 16.4087 5.04427 16.6741 5.18288C16.9396 5.32148 17.1575 5.53638 17.2998 5.7999C17.4834 6.13993 17.5287 6.53769 17.4262 6.91029C17.3237 7.28288 17.0814 7.60156 16.7498 7.7999Z" fill="white" />
</svg>