<svg width="60" height="60" viewBox="0 0 60 60" fill="none" xmlns="http://www.w3.org/2000/svg">
  <g clip-path="url(#clip0_2034_2016)">
    <path d="M50.7929 11.2302C46.9678 9.50518 42.8679 8.23018 38.5804 7.50518C38.5422 7.49785 38.5026 7.50257 38.4673 7.5187C38.4319 7.53482 38.4024 7.56155 38.3829 7.59518C37.8578 8.51768 37.2729 9.72018 36.8629 10.6702C32.3156 9.99077 27.6926 9.99077 23.1453 10.6702C22.6887 9.61733 22.1737 8.59074 21.6028 7.59518C21.5835 7.56113 21.5542 7.5338 21.5189 7.51683C21.4836 7.49985 21.444 7.49405 21.4053 7.50018C17.1203 8.22518 13.0203 9.50018 9.19285 11.2277C9.15992 11.2415 9.132 11.265 9.11285 11.2952C1.33285 22.7327 -0.799653 33.8877 0.247847 44.9027C0.250762 44.9297 0.259136 44.9558 0.272459 44.9794C0.285783 45.003 0.303777 45.0237 0.325347 45.0402C4.86633 48.3462 9.93119 50.8647 15.3078 52.4902C15.3453 52.5017 15.3854 52.5017 15.4229 52.4901C15.4603 52.4785 15.4934 52.4559 15.5178 52.4252C16.6748 50.8779 17.7001 49.2363 18.5828 47.5177C18.5951 47.4942 18.6022 47.4683 18.6036 47.4419C18.6049 47.4154 18.6006 47.3889 18.5909 47.3643C18.5812 47.3396 18.5663 47.3174 18.5472 47.299C18.5281 47.2806 18.5053 47.2665 18.4803 47.2577C16.8654 46.6495 15.3006 45.9156 13.8003 45.0627C13.7734 45.0473 13.7507 45.0254 13.7342 44.9991C13.7178 44.9728 13.7082 44.9428 13.7062 44.9118C13.7042 44.8808 13.7099 44.8499 13.7229 44.8216C13.7358 44.7934 13.7556 44.7689 13.7803 44.7502C14.0953 44.5177 14.4103 44.2752 14.7103 44.0327C14.7374 44.0109 14.7699 43.997 14.8043 43.9926C14.8387 43.9882 14.8737 43.9934 14.9053 44.0077C24.7228 48.4177 35.3554 48.4177 45.0579 44.0077C45.0896 43.9925 45.1249 43.9866 45.1598 43.9906C45.1948 43.9946 45.2278 44.0083 45.2553 44.0302C45.5554 44.2752 45.8679 44.5177 46.1854 44.7502C46.2104 44.7685 46.2304 44.7927 46.2438 44.8207C46.2572 44.8487 46.2634 44.8795 46.2619 44.9105C46.2604 44.9414 46.2513 44.9715 46.2353 44.9981C46.2193 45.0247 46.197 45.0468 46.1704 45.0627C44.6754 45.9227 43.1203 46.6502 41.4879 47.2552C41.4628 47.2643 41.4399 47.2786 41.4209 47.2973C41.4018 47.3159 41.3869 47.3384 41.3772 47.3632C41.3675 47.3881 41.3632 47.4147 41.3646 47.4413C41.366 47.468 41.3731 47.494 41.3854 47.5177C42.2854 49.2352 43.3153 50.8702 44.4478 52.4227C44.4714 52.4545 44.5042 52.4784 44.5418 52.4909C44.5794 52.5034 44.6199 52.504 44.6579 52.4927C50.0437 50.8718 55.1169 48.3521 59.6629 45.0402C59.685 45.0247 59.7036 45.0046 59.7174 44.9813C59.7312 44.958 59.7399 44.9321 59.7429 44.9052C60.9929 32.1702 57.6479 21.1052 50.8703 11.3002C50.8537 11.2683 50.8262 11.2435 50.7929 11.2302ZM20.0504 38.1952C17.0954 38.1952 14.6578 35.5227 14.6578 32.2452C14.6578 28.9652 17.0478 26.2952 20.0504 26.2952C23.0753 26.2952 25.4903 28.9877 25.4429 32.2452C25.4429 35.5252 23.0529 38.1952 20.0504 38.1952ZM39.9879 38.1952C37.0303 38.1952 34.5954 35.5227 34.5954 32.2452C34.5954 28.9652 36.9828 26.2952 39.9879 26.2952C43.0129 26.2952 45.4279 28.9877 45.3804 32.2452C45.3804 35.5252 43.0154 38.1952 39.9879 38.1952Z" fill="white" />
  </g>
  <defs>
    <clipPath id="clip0_2034_2016">
      <rect width="60" height="60" fill="white" transform="translate(0.000366211 0.000244141)" />
    </clipPath>
  </defs>
</svg>