<svg width="24" height="24" viewBox="0 0 24 24" fill="none" xmlns="http://www.w3.org/2000/svg">
  <path d="M19.92 11.6241C19.8724 11.5013 19.801 11.3892 19.71 11.2941L14.71 6.29409C14.6168 6.20085 14.5061 6.12689 14.3843 6.07643C14.2624 6.02597 14.1319 6 14 6C13.7337 6 13.4783 6.10579 13.29 6.29409C13.1968 6.38733 13.1228 6.49802 13.0723 6.61984C13.0219 6.74166 12.9959 6.87223 12.9959 7.00409C12.9959 7.27039 13.1017 7.52579 13.29 7.71409L16.59 11.0041H5C4.73478 11.0041 4.48043 11.1094 4.29289 11.297C4.10536 11.4845 4 11.7389 4 12.0041C4 12.2693 4.10536 12.5237 4.29289 12.7112C4.48043 12.8987 4.73478 13.0041 5 13.0041L16.59 13.0041L13.29 16.2941C13.1963 16.3871 13.1219 16.4977 13.0711 16.6195C13.0203 16.7414 12.9942 16.8721 12.9942 17.0041C12.9942 17.1361 13.0203 17.2668 13.0711 17.3887C13.1219 17.5105 13.1963 17.6211 13.29 17.7141C13.383 17.8078 13.4936 17.8822 13.6154 17.933C13.7373 17.9838 13.868 18.0099 14 18.0099C14.132 18.0099 14.2627 17.9838 14.3846 17.933C14.5064 17.8822 14.617 17.8078 14.71 17.7141L19.71 12.7141C19.801 12.619 19.8724 12.5068 19.92 12.3841C20.02 12.1406 20.02 11.8676 19.92 11.6241Z" fill="#323A56" />
</svg>