<svg width="30" height="30" viewBox="0 0 30 30" fill="none" xmlns="http://www.w3.org/2000/svg">
  <path d="M14.2752 7.95381L14.9983 8.71068L15.7213 7.95381C16.7257 6.90252 18.3501 5.61548 20.1077 5.61548C21.7626 5.61548 23.1078 6.18832 24.0368 7.11572C24.9657 8.04301 25.5388 9.3849 25.5388 11.0351C25.5388 12.8264 24.8407 14.3265 23.7186 15.7251C22.5774 17.1475 21.0485 18.4051 19.4426 19.7209C19.4426 19.7209 19.4425 19.7209 19.4425 19.721L19.4221 19.7377C17.9421 20.9498 16.3247 22.2744 15.0681 23.7597C15.0566 23.773 15.0418 23.7784 15.0297 23.7784H14.9689C14.9557 23.7784 14.9402 23.7723 14.9288 23.7589L14.1665 24.406L14.9305 23.7608C13.6862 22.2875 12.0834 20.9728 10.6156 19.7689L10.5577 19.7213L10.5573 19.721C8.95088 18.4047 7.42217 17.1469 6.28129 15.7244C5.15961 14.3259 4.46191 12.826 4.46191 11.0351C4.46191 9.3849 5.03505 8.04304 5.96404 7.11577C6.89316 6.18837 8.23857 5.61548 9.89408 5.61548C11.6501 5.61548 13.2701 6.90169 14.2752 7.95381Z" stroke="white" stroke-width="2" />
</svg>