<svg width="20" height="20" viewBox="0 0 20 20" fill="none" xmlns="http://www.w3.org/2000/svg">
  <path d="M9.99526 1.66669C8.34709 1.66669 6.73592 2.15543 5.36551 3.07111C3.9951 3.98679 2.927 5.28827 2.29627 6.81099C1.66554 8.33371 1.50051 10.0093 1.82205 11.6258C2.1436 13.2423 2.93727 14.7271 4.10271 15.8926C5.26814 17.058 6.753 17.8517 8.36951 18.1732C9.98602 18.4948 11.6616 18.3297 13.1843 17.699C14.707 17.0683 16.0085 16.0002 16.9242 14.6298C17.8399 13.2594 18.3286 11.6482 18.3286 10C18.3287 8.90565 18.1132 7.82197 17.6944 6.81088C17.2757 5.7998 16.6619 4.8811 15.888 4.10726C15.1142 3.33342 14.1955 2.7196 13.1844 2.30084C12.1733 1.88208 11.0896 1.6666 9.99526 1.66669ZM12.6449 14.2937C12.6137 14.3715 12.5662 14.4417 12.5057 14.4997C12.4451 14.5576 12.3729 14.6019 12.2938 14.6297C12.2147 14.6574 12.1307 14.6679 12.0472 14.6605C11.9637 14.6531 11.8828 14.6279 11.8099 14.5867L9.54763 12.8288L8.0957 14.1684C8.06201 14.1932 8.0226 14.2093 7.98109 14.2149C7.93959 14.2206 7.89733 14.2157 7.8582 14.2008L8.13653 11.7104L8.14544 11.7175L8.15113 11.6683C8.15113 11.6683 12.222 7.96206 12.3878 7.80415C12.5557 7.64665 12.5003 7.61249 12.5003 7.61249C12.5099 7.42038 12.199 7.61249 12.199 7.61249L6.80526 11.0825L4.55902 10.3175C4.55902 10.3175 4.21402 10.1938 4.18152 9.92169C4.14736 9.65169 4.57026 9.50502 4.57026 9.50502L13.5011 5.9571C13.5011 5.9571 14.2353 5.63 14.2353 6.17169L12.6449 14.2937Z" fill="white" />
</svg>