<svg width="18" height="18" viewBox="0 0 18 18" fill="none" xmlns="http://www.w3.org/2000/svg">
  <path d="M16.0583 0.666681H1.94166C1.78297 0.664478 1.62541 0.693554 1.47796 0.752251C1.33052 0.810948 1.19608 0.898115 1.08232 1.00877C0.968569 1.11943 0.877727 1.25142 0.814986 1.39719C0.752245 1.54296 0.718833 1.69966 0.71666 1.85835V16.1417C0.718833 16.3004 0.752245 16.4571 0.814986 16.6028C0.877727 16.7486 0.968569 16.8806 1.08232 16.9913C1.19608 17.1019 1.33052 17.1891 1.47796 17.2478C1.62541 17.3065 1.78297 17.3356 1.94166 17.3333H16.0583C16.217 17.3356 16.3746 17.3065 16.522 17.2478C16.6695 17.1891 16.8039 17.1019 16.9177 16.9913C17.0314 16.8806 17.1223 16.7486 17.185 16.6028C17.2477 16.4571 17.2812 16.3004 17.2833 16.1417V1.85835C17.2812 1.69966 17.2477 1.54296 17.185 1.39719C17.1223 1.25142 17.0314 1.11943 16.9177 1.00877C16.8039 0.898115 16.6695 0.810948 16.522 0.752251C16.3746 0.693554 16.217 0.664478 16.0583 0.666681ZM5.74166 14.6167H3.24166V7.11668H5.74166V14.6167ZM4.49166 6.06668C4.14688 6.06668 3.81622 5.92972 3.57242 5.68592C3.32862 5.44212 3.19166 5.11146 3.19166 4.76668C3.19166 4.4219 3.32862 4.09124 3.57242 3.84744C3.81622 3.60365 4.14688 3.46668 4.49166 3.46668C4.67474 3.44592 4.86014 3.46406 5.03572 3.51992C5.2113 3.57578 5.37311 3.66809 5.51054 3.79082C5.64797 3.91354 5.75793 4.06391 5.83322 4.23208C5.90851 4.40025 5.94742 4.58243 5.94742 4.76668C5.94742 4.95093 5.90851 5.13311 5.83322 5.30128C5.75793 5.46945 5.64797 5.61982 5.51054 5.74255C5.37311 5.86527 5.2113 5.95759 5.03572 6.01345C4.86014 6.0693 4.67474 6.08744 4.49166 6.06668ZM14.7583 14.6167H12.2583V10.5917C12.2583 9.58335 11.9 8.92502 10.9917 8.92502C10.7105 8.92707 10.4368 9.01525 10.2074 9.17766C9.97789 9.34007 9.80373 9.56891 9.70833 9.83335C9.64311 10.0292 9.61486 10.2355 9.62499 10.4417V14.6083H7.12499C7.12499 14.6083 7.12499 7.79168 7.12499 7.10835H9.62499V8.16668C9.8521 7.7726 10.1824 7.44795 10.5804 7.22768C10.9783 7.00742 11.4288 6.89989 11.8833 6.91668C13.55 6.91668 14.7583 7.99168 14.7583 10.3V14.6167Z" fill="white" />
</svg>