<svg width="20" height="20" viewBox="0 0 20 20" fill="none" xmlns="http://www.w3.org/2000/svg">
  <g clip-path="url(#clip0_2044_2495)">
    <path d="M19.756 18.577L18.8585 17.6795L17.4168 16.2404L19.741 13.9162C19.8399 13.8171 19.9123 13.6947 19.9514 13.5603C19.9905 13.4258 19.9952 13.2837 19.9649 13.147C19.9345 13.0103 19.8703 12.8835 19.778 12.7782C19.6857 12.6729 19.5684 12.5925 19.4368 12.5445L11.9627 9.83288C11.665 9.72528 11.3428 9.70469 11.0338 9.77352C10.7248 9.84235 10.4418 9.99777 10.2179 10.2216C9.99399 10.4454 9.83847 10.7283 9.76951 11.0373C9.70056 11.3462 9.72102 11.6685 9.82851 11.9662L12.5477 19.4404C12.5954 19.572 12.6756 19.6895 12.7807 19.782C12.8859 19.8745 13.0127 19.939 13.1493 19.9695C13.2087 19.9825 13.2694 19.9889 13.3302 19.9887C13.5512 19.9887 13.7631 19.9008 13.9193 19.7445L16.241 17.4162L17.6802 18.8554L18.5777 19.7529C18.7348 19.9047 18.9453 19.9887 19.1638 19.9868C19.3823 19.9849 19.5914 19.8972 19.7459 19.7427C19.9004 19.5882 19.988 19.3792 19.9899 19.1607C19.9918 18.9422 19.9078 18.7317 19.756 18.5745V18.577ZM13.6668 17.637L11.3968 11.3954L17.6385 13.6654L13.6668 17.637Z" fill="#1D72D2" />
    <path d="M8.33334 16.6667C6.68516 16.6667 5.07399 16.1779 3.70358 15.2622C2.33318 14.3466 1.26507 13.0451 0.634341 11.5224C0.0036107 9.99965 -0.161417 8.32409 0.160126 6.70758C0.48167 5.09108 1.27534 3.60622 2.44078 2.44078C3.60622 1.27534 5.09108 0.48167 6.70758 0.160126C8.32409 -0.161417 9.99965 0.0036107 11.5224 0.634341C13.0451 1.26507 14.3466 2.33318 15.2622 3.70358C16.1779 5.07399 16.6667 6.68516 16.6667 8.33334C16.6667 8.55435 16.5789 8.76631 16.4226 8.92259C16.2663 9.07887 16.0543 9.16667 15.8333 9.16667C15.6123 9.16667 15.4004 9.07887 15.2441 8.92259C15.0878 8.76631 15 8.55435 15 8.33334C15 7.0148 14.609 5.72586 13.8765 4.62954C13.1439 3.53321 12.1027 2.67872 10.8846 2.17414C9.66639 1.66956 8.32594 1.53753 7.03274 1.79477C5.73953 2.052 4.55164 2.68694 3.61929 3.61929C2.68694 4.55164 2.052 5.73953 1.79477 7.03274C1.53753 8.32594 1.66956 9.66639 2.17414 10.8846C2.67872 12.1027 3.53321 13.1439 4.62954 13.8765C5.72586 14.609 7.0148 15 8.33334 15C8.55435 15 8.76631 15.0878 8.92259 15.2441C9.07887 15.4004 9.16667 15.6123 9.16667 15.8333C9.16667 16.0543 9.07887 16.2663 8.92259 16.4226C8.76631 16.5789 8.55435 16.6667 8.33334 16.6667Z" fill="#1D72D2" />
    <path d="M6.73653 13.0168C6.62702 13.0169 6.51856 12.9954 6.41737 12.9535C5.65808 12.6381 4.98827 12.1404 4.46727 11.5044C3.94627 10.8684 3.59014 10.1137 3.43044 9.30716C3.27074 8.50064 3.31238 7.66719 3.55169 6.88062C3.79099 6.09404 4.22057 5.37862 4.80238 4.7977C5.38419 4.21678 6.10027 3.7883 6.88721 3.5502C7.67416 3.3121 8.50767 3.27173 9.31394 3.43267C10.1202 3.5936 10.8743 3.95088 11.5096 4.47285C12.1448 4.99483 12.6415 5.6654 12.9557 6.42516C12.9997 6.52667 13.0231 6.63593 13.0245 6.74657C13.0258 6.85722 13.0052 6.96702 12.9636 7.06958C12.9221 7.17214 12.8606 7.26541 12.7826 7.34393C12.7047 7.42246 12.6119 7.48468 12.5096 7.52695C12.4073 7.56922 12.2977 7.59071 12.187 7.59016C12.0764 7.5896 11.967 7.56702 11.8651 7.52372C11.7633 7.48043 11.6711 7.41728 11.594 7.33798C11.5168 7.25868 11.4562 7.1648 11.4157 7.06183C11.2058 6.55578 10.8743 6.10927 10.4507 5.76183C10.0271 5.41439 9.52434 5.17673 8.98698 5.06986C8.44963 4.963 7.89422 4.99024 7.3699 5.14916C6.84558 5.30809 6.36852 5.5938 5.98092 5.98102C5.59333 6.36824 5.30716 6.84503 5.14773 7.3692C4.9883 7.89337 4.96054 8.44875 5.06689 8.98621C5.17323 9.52366 5.41042 10.0266 5.75746 10.4506C6.10449 10.8745 6.55068 11.2064 7.05653 11.4168C7.2348 11.4906 7.38195 11.6239 7.47287 11.7941C7.56379 11.9643 7.59285 12.1607 7.55509 12.3499C7.51733 12.5391 7.41509 12.7094 7.26581 12.8316C7.11653 12.9538 6.92947 13.0205 6.73653 13.0202V13.0168Z" fill="#1D72D2" />
  </g>
  <defs>
    <clipPath id="clip0_2044_2495">
      <rect width="20" height="20" fill="white" />
    </clipPath>
  </defs>
</svg>