<svg width="24" height="24" viewBox="0 0 24 24" fill="none" xmlns="http://www.w3.org/2000/svg">
  <g clip-path="url(#clip0_2034_2361)">
    <path d="M22.0568 5.22973L14.6828 1.71673C13.0596 0.74717 11.0393 0.729967 9.39979 1.67173L1.94282 5.22973C1.91483 5.24375 1.88582 5.25875 1.85882 5.27473C0.0891931 6.28658 -0.525151 8.5414 0.486693 10.311C0.829677 10.9109 1.33419 11.4025 1.94282 11.7297L3.99983 12.7098V17.6097C4.00105 19.8008 5.42676 21.7366 7.51883 22.3878C8.97472 22.8089 10.4843 23.0151 11.9998 22.9998C13.5151 23.0167 15.0247 22.8123 16.4809 22.3928C18.5729 21.7416 19.9986 19.8058 19.9999 17.6148V12.7077L21.9999 11.7517V19.9997C21.9999 20.552 22.4476 20.9997 22.9999 20.9997C23.5521 20.9997 23.9998 20.552 23.9998 19.9997V7.99972C24.0065 6.82545 23.0793 5.74067 22.0568 5.22973ZM17.9998 17.6148C18.0003 18.9253 17.15 20.0846 15.8998 20.4777C14.632 20.84 13.3183 21.0158 11.9998 20.9997C10.6813 21.0158 9.36758 20.84 8.0998 20.4777C6.8496 20.0846 5.99929 18.9253 5.9998 17.6148V13.6628L9.31682 15.2428C10.1353 15.7288 11.07 15.9842 12.0218 15.9818C12.9278 15.9882 13.8186 15.7483 14.5988 15.2878L17.9998 13.6627V17.6148ZM21.1998 9.92473L13.6578 13.5247C12.6062 14.1371 11.3028 14.1197 10.2678 13.4797L2.8888 9.96973C2.06629 9.5262 1.75907 8.49987 2.2026 7.6774C2.3526 7.39925 2.57751 7.16867 2.85182 7.01173L10.3468 3.43175C11.3987 2.82078 12.7015 2.83808 13.7368 3.47675L21.1108 6.98975C21.6531 7.29087 21.9924 7.85951 21.9998 8.47976C22.0008 9.0673 21.6982 9.61367 21.1998 9.92473Z" fill="#8A90A5" />
  </g>
  <defs>
    <clipPath id="clip0_2034_2361">
      <rect width="24" height="24" fill="white" />
    </clipPath>
  </defs>
</svg>