<svg width="24" height="24" viewBox="0 0 24 24" fill="none" xmlns="http://www.w3.org/2000/svg">
  <g clip-path="url(#clip0_2034_2348)">
    <path d="M22.2 2.16291C21.6378 1.69284 20.9791 1.3523 20.2705 1.16548C19.5619 0.978651 18.8209 0.95012 18.1 1.08191L14.278 1.77591C13.3956 1.93795 12.5933 2.39194 12 3.06491C11.4052 2.39078 10.6006 1.93669 9.716 1.77591L5.9 1.08191C5.17916 0.950005 4.43813 0.978161 3.72938 1.16439C3.02062 1.35061 2.36147 1.69036 1.79857 2.15956C1.23567 2.62877 0.782786 3.21598 0.471982 3.87962C0.161178 4.54326 4.88125e-05 5.2671 0 5.99991L0 16.7929C5.74559e-05 17.9637 0.410977 19.0974 1.16113 19.9963C1.91129 20.8952 2.95311 21.5023 4.105 21.7119L10.391 22.8549C11.455 23.0482 12.545 23.0482 13.609 22.8549L19.9 21.7119C21.051 21.5013 22.0916 20.8937 22.8408 19.9949C23.5899 19.0961 24.0002 17.963 24 16.7929V5.99991C24.0005 5.26736 23.8394 4.54371 23.5283 3.8805C23.2171 3.2173 22.7636 2.63085 22.2 2.16291ZM11 20.9279C10.916 20.9159 10.832 20.9019 10.748 20.8869L4.463 19.7449C3.77176 19.6192 3.14659 19.2548 2.69649 18.7153C2.24638 18.1758 1.99989 17.4955 2 16.7929V5.99991C2 5.20426 2.31607 4.4412 2.87868 3.87859C3.44129 3.31598 4.20435 2.99991 5 2.99991C5.18109 3.00034 5.36179 3.01674 5.54 3.04891L9.36 3.74891C9.81961 3.83301 10.2353 4.07538 10.5348 4.43395C10.8344 4.79253 10.999 5.24467 11 5.71191V20.9279ZM22 16.7929C22.0001 17.4955 21.7536 18.1758 21.3035 18.7153C20.8534 19.2548 20.2282 19.6192 19.537 19.7449L13.252 20.8869C13.168 20.9019 13.084 20.9159 13 20.9279V5.71191C12.9999 5.24352 13.1643 4.78997 13.4643 4.43032C13.7644 4.07067 14.1812 3.82775 14.642 3.74391L18.463 3.04391C18.8957 2.96518 19.3405 2.98256 19.7657 3.09482C20.191 3.20708 20.5863 3.41147 20.9238 3.69352C21.2613 3.97556 21.5326 4.32837 21.7186 4.72693C21.9046 5.1255 22.0007 5.56009 22 5.99991V16.7929Z" fill="#8A90A5" />
  </g>
  <defs>
    <clipPath id="clip0_2034_2348">
      <rect width="24" height="24" fill="white" />
    </clipPath>
  </defs>
</svg>