<svg width="24" height="24" viewBox="0 0 24 24" fill="none" xmlns="http://www.w3.org/2000/svg">
  <g clip-path="url(#clip0_2034_2338)">
    <path d="M23.9999 11.2471C23.8553 8.9071 23.0291 6.66059 21.6231 4.7845C20.2171 2.90841 18.2929 1.48477 16.0876 0.68907C13.8823 -0.106627 11.4924 -0.239591 9.21247 0.306571C6.93253 0.852733 4.86225 2.05415 3.25686 3.76269C1.65147 5.47124 0.581149 7.61224 0.17785 9.92173C-0.225449 12.2312 0.0559044 14.6083 0.987224 16.7598C1.91854 18.9113 3.45912 20.7433 5.41902 22.0298C7.37892 23.3164 9.67246 24.0013 12.0169 24.0001H18.9999C20.3256 23.9988 21.5966 23.4715 22.534 22.5341C23.4714 21.5968 23.9986 20.3258 23.9999 19.0001V11.2471ZM21.9999 19.0001C21.9999 19.7957 21.6838 20.5588 21.1212 21.1214C20.5586 21.684 19.7956 22.0001 18.9999 22.0001H12.0169C10.6058 21.9994 9.21075 21.7014 7.92261 21.1254C6.63446 20.5494 5.48218 19.7083 4.54091 18.6571C3.59508 17.6063 2.88484 16.3655 2.4578 15.0179C2.03077 13.6702 1.89681 12.2468 2.06491 10.8431C2.33034 8.62902 3.3251 6.56626 4.89235 4.98C6.4596 3.39374 8.51021 2.37419 10.7209 2.08207C11.1521 2.02803 11.5863 2.00064 12.0209 2.00007C14.3514 1.99372 16.6097 2.80798 18.3999 4.30008C19.4454 5.16902 20.3036 6.24123 20.9224 7.45171C21.5413 8.66218 21.9078 9.98572 21.9999 11.3421V19.0001Z" fill="#8A90A5" />
    <path d="M7.99976 8.99975H11.9998C12.265 8.99975 12.5193 8.8944 12.7069 8.70686C12.8944 8.51932 12.9998 8.26497 12.9998 7.99975C12.9998 7.73454 12.8944 7.48018 12.7069 7.29265C12.5193 7.10511 12.265 6.99976 11.9998 6.99976H7.99976C7.73454 6.99976 7.48019 7.10511 7.29265 7.29265C7.10511 7.48018 6.99976 7.73454 6.99976 7.99975C6.99976 8.26497 7.10511 8.51932 7.29265 8.70686C7.48019 8.8944 7.73454 8.99975 7.99976 8.99975Z" fill="#8A90A5" />
    <path d="M15.9998 11.0002H7.99976C7.73454 11.0002 7.48019 11.1056 7.29265 11.2931C7.10511 11.4807 6.99976 11.735 6.99976 12.0002C6.99976 12.2655 7.10511 12.5198 7.29265 12.7074C7.48019 12.8949 7.73454 13.0003 7.99976 13.0003H15.9998C16.265 13.0003 16.5193 12.8949 16.7069 12.7074C16.8944 12.5198 16.9998 12.2655 16.9998 12.0002C16.9998 11.735 16.8944 11.4807 16.7069 11.2931C16.5193 11.1056 16.265 11.0002 15.9998 11.0002Z" fill="#8A90A5" />
    <path d="M15.9998 15H7.99976C7.73454 15 7.48019 15.1054 7.29265 15.2929C7.10511 15.4804 6.99976 15.7348 6.99976 16C6.99976 16.2652 7.10511 16.5196 7.29265 16.7071C7.48019 16.8947 7.73454 17 7.99976 17H15.9998C16.265 17 16.5193 16.8947 16.7069 16.7071C16.8944 16.5196 16.9998 16.2652 16.9998 16C16.9998 15.7348 16.8944 15.4804 16.7069 15.2929C16.5193 15.1054 16.265 15 15.9998 15Z" fill="#8A90A5" />
  </g>
  <defs>
    <clipPath id="clip0_2034_2338">
      <rect width="24" height="24" fill="white" />
    </clipPath>
  </defs>
</svg>