<svg width="20" height="20" viewBox="0 0 20 20" fill="none" xmlns="http://www.w3.org/2000/svg">
  <g clip-path="url(#clip0_2044_2085)">
    <path d="M9.99998 13.3333C10.388 13.3341 10.7709 13.2445 11.1183 13.0717L12.785 12.2383C13.6345 11.8165 14.1703 10.9485 14.1667 10V7.52752C14.1696 6.5799 13.6338 5.71295 12.785 5.2917L11.1183 4.45838C10.4141 4.10838 9.58665 4.10838 8.88247 4.45838L7.2158 5.2917C6.36666 5.71271 5.83052 6.57975 5.8333 7.52752V10C5.83025 10.9479 6.36599 11.8151 7.21498 12.2367L8.88165 13.07C9.22892 13.2434 9.61181 13.3336 9.99998 13.3333ZM7.49998 10V7.52752C7.5013 7.44252 7.51564 7.35818 7.54248 7.27752L9.35916 8.18584C9.76259 8.38748 10.2374 8.38748 10.6408 8.18584L12.4575 7.27752C12.4844 7.35818 12.4987 7.44252 12.5 7.52752V10C12.5013 10.3162 12.3226 10.6056 12.0392 10.7458L10.3725 11.5792C10.1375 11.6954 9.86169 11.6954 9.62669 11.5792L7.96001 10.7458C7.67693 10.6053 7.49849 10.316 7.49998 10ZM15.8333 18.3333H13.5758L16.4816 15.6483C20.0615 12.0686 20.0616 6.26459 16.4818 2.68471C12.902 -0.895176 7.0981 -0.895215 3.51822 2.68451C-0.061665 6.26424 -0.0617434 12.0683 3.51802 15.6481C3.52587 15.656 6.42416 18.3333 6.42416 18.3333H4.16666C3.70642 18.3333 3.33333 18.7064 3.33333 19.1667C3.33333 19.6269 3.70642 20 4.16666 20H15.8333C16.2936 20 16.6667 19.6269 16.6667 19.1667C16.6667 18.7065 16.2935 18.3333 15.8333 18.3333ZM4.69666 3.86334C7.61916 0.927715 12.3681 0.91709 15.3037 3.83959C18.2394 6.76209 18.25 11.511 15.3275 14.4467L12.0067 17.5142C10.8732 18.5825 9.10173 18.5763 7.97583 17.5L4.69666 14.47C1.77224 11.5392 1.77228 6.7942 4.69666 3.86334Z" fill="#1D72D2" />
  </g>
  <defs>
    <clipPath id="clip0_2044_2085">
      <rect width="20" height="20" fill="white" />
    </clipPath>
  </defs>
</svg>