<svg width="20" height="20" viewBox="0 0 20 20" fill="none" xmlns="http://www.w3.org/2000/svg">
  <g clip-path="url(#clip0_2034_2425)">
    <path d="M20 9.37272C19.8794 7.42274 19.1909 5.55065 18.0193 3.98725C16.8477 2.42384 15.2441 1.23747 13.4064 0.574388C11.5687 -0.0886934 9.57705 -0.199497 7.6771 0.255638C5.77715 0.710774 4.05192 1.71195 2.71409 3.13574C1.37626 4.55953 0.484331 6.34369 0.148249 8.26827C-0.187833 10.1929 0.0466277 12.1737 0.822727 13.9667C1.59883 15.7596 2.88264 17.2862 4.51589 18.3584C6.14914 19.4305 8.06043 20.0012 10.0141 20.0002H15.8333C16.938 19.9991 17.9972 19.5598 18.7784 18.7786C19.5595 17.9975 19.9989 16.9383 20 15.8336V9.37272ZM18.3333 15.8336C18.3333 16.4966 18.0699 17.1325 17.6011 17.6013C17.1322 18.0702 16.4963 18.3336 15.8333 18.3336H10.0141C8.83824 18.333 7.67567 18.0847 6.60221 17.6046C5.52876 17.1246 4.56853 16.4238 3.78413 15.5477C2.99594 14.6721 2.40407 13.6381 2.04821 12.515C1.69235 11.392 1.58071 10.2058 1.7208 9.03606C1.94199 7.19101 2.77095 5.47205 4.077 4.15016C5.38304 2.82828 7.09188 1.97865 8.93413 1.73523C9.29349 1.69018 9.65529 1.66736 10.0175 1.66689C11.9595 1.66159 13.8415 2.34014 15.3333 3.58356C16.2046 4.30768 16.9197 5.20119 17.4354 6.20992C17.9511 7.21865 18.2566 8.32159 18.3333 9.45189V15.8336Z" fill="#8A90A5" />
    <path d="M6.66659 7.49992H9.99992C10.2209 7.49992 10.4329 7.41212 10.5892 7.25584C10.7455 7.09956 10.8333 6.8876 10.8333 6.66658C10.8333 6.44557 10.7455 6.23361 10.5892 6.07733C10.4329 5.92105 10.2209 5.83325 9.99992 5.83325H6.66659C6.44557 5.83325 6.23361 5.92105 6.07733 6.07733C5.92105 6.23361 5.83325 6.44557 5.83325 6.66658C5.83325 6.8876 5.92105 7.09956 6.07733 7.25584C6.23361 7.41212 6.44557 7.49992 6.66659 7.49992Z" fill="#8A90A5" />
    <path d="M13.3333 9.16675H6.66659C6.44557 9.16675 6.23361 9.25455 6.07733 9.41083C5.92105 9.56711 5.83325 9.77907 5.83325 10.0001C5.83325 10.2211 5.92105 10.4331 6.07733 10.5893C6.23361 10.7456 6.44557 10.8334 6.66659 10.8334H13.3333C13.5543 10.8334 13.7662 10.7456 13.9225 10.5893C14.0788 10.4331 14.1666 10.2211 14.1666 10.0001C14.1666 9.77907 14.0788 9.56711 13.9225 9.41083C13.7662 9.25455 13.5543 9.16675 13.3333 9.16675Z" fill="#8A90A5" />
    <path d="M13.3333 12.5H6.66659C6.44557 12.5 6.23361 12.5878 6.07733 12.7441C5.92105 12.9004 5.83325 13.1123 5.83325 13.3333C5.83325 13.5544 5.92105 13.7663 6.07733 13.9226C6.23361 14.0789 6.44557 14.1667 6.66659 14.1667H13.3333C13.5543 14.1667 13.7662 14.0789 13.9225 13.9226C14.0788 13.7663 14.1666 13.5544 14.1666 13.3333C14.1666 13.1123 14.0788 12.9004 13.9225 12.7441C13.7662 12.5878 13.5543 12.5 13.3333 12.5Z" fill="#8A90A5" />
  </g>
  <defs>
    <clipPath id="clip0_2034_2425">
      <rect width="20" height="20" fill="white" />
    </clipPath>
  </defs>
</svg>