<svg width="20" height="20" viewBox="0 0 20 20" fill="none" xmlns="http://www.w3.org/2000/svg">
  <path d="M19.2308 17.6154L18.4708 18.4904C11.6458 25.0238 -4.96249 8.42043 1.47085 1.57376L2.42918 0.740427C2.91403 0.270647 3.56445 0.01081 4.23953 0.0172052C4.91461 0.0236003 5.55998 0.295713 6.03585 0.774594C6.06168 0.799594 7.60418 2.80543 7.60418 2.80543C8.06235 3.28653 8.31756 3.92565 8.31678 4.59001C8.31601 5.25437 8.05931 5.8929 7.60001 6.37293L6.63335 7.58293C7.16738 8.88086 7.95263 10.0605 8.94398 11.054C9.93534 12.0475 11.1132 12.8353 12.41 13.3721L13.63 12.4013C14.1099 11.9415 14.7484 11.6843 15.413 11.6833C16.0776 11.6822 16.717 11.9372 17.1983 12.3954C17.1983 12.3954 19.2042 13.9396 19.23 13.9654C19.7136 14.4496 19.9852 15.1059 19.9854 15.7903C19.9855 16.4746 19.7142 17.131 19.2308 17.6154ZM18.0842 15.1796C18.0842 15.1796 16.0842 13.6446 16.0633 13.6196C15.8895 13.4535 15.6584 13.3608 15.4179 13.3608C15.1775 13.3608 14.9463 13.4535 14.7725 13.6196C14.7508 13.6421 13.0692 14.9821 13.0692 14.9821C12.9558 15.0721 12.821 15.1311 12.6779 15.1531C12.5349 15.1752 12.3886 15.1596 12.2533 15.1079C10.5728 14.4828 9.04648 13.5035 7.77785 12.2365C6.50923 10.9695 5.52803 9.44432 4.90085 7.76459C4.84609 7.62795 4.8285 7.47925 4.84987 7.3336C4.87124 7.18796 4.93081 7.05057 5.02251 6.93543C5.02251 6.93543 6.36168 5.25459 6.38501 5.23209C6.55549 5.06038 6.65116 4.82823 6.65116 4.58626C6.65116 4.34429 6.55549 4.11214 6.38501 3.94043C6.35835 3.91626 4.82418 1.92126 4.82418 1.92126C4.65004 1.76491 4.42268 1.68108 4.18872 1.68697C3.95476 1.69286 3.73191 1.78801 3.56585 1.95293L2.60668 2.79043C-2.09332 8.43959 12.2992 22.0346 17.2508 17.3546L18.0108 16.4796C18.1896 16.3149 18.2973 16.0871 18.311 15.8445C18.3247 15.6018 18.2433 15.3633 18.0842 15.1796Z" fill="#1D72D2" />
</svg>