<svg width="30" height="30" viewBox="0 0 30 30" fill="none" xmlns="http://www.w3.org/2000/svg">
  <g clip-path="url(#clip0_2034_2547)">
    <path d="M23.3203 1.16283L8.08027 16.4028C7.4982 16.9818 7.03674 17.6704 6.72262 18.4289C6.4085 19.1874 6.24795 20.0006 6.25027 20.8216V22.5003C6.25027 22.8319 6.38197 23.1498 6.61639 23.3842C6.85081 23.6186 7.16875 23.7503 7.50027 23.7503H9.17902C9.99997 23.7527 10.8132 23.5921 11.5717 23.278C12.3302 22.9639 13.0188 22.5024 13.5978 21.9203L28.8378 6.68033C29.5683 5.94805 29.9785 4.95593 29.9785 3.92158C29.9785 2.88724 29.5683 1.89512 28.8378 1.16283C28.0949 0.452702 27.1067 0.0563965 26.079 0.0563965C25.0513 0.0563965 24.0632 0.452702 23.3203 1.16283ZM27.0703 4.91283L11.8303 20.1528C11.1254 20.8534 10.1728 21.2477 9.17902 21.2503H8.75027V20.8216C8.75287 19.8278 9.14723 18.8752 9.84777 18.1703L25.0878 2.93033C25.3548 2.67528 25.7098 2.53295 26.079 2.53295C26.4483 2.53295 26.8033 2.67528 27.0703 2.93033C27.3327 3.19348 27.4801 3.54995 27.4801 3.92158C27.4801 4.29322 27.3327 4.64969 27.0703 4.91283Z" fill="#70C63B" />
    <path d="M28.75 11.2238C28.4185 11.2238 28.1005 11.3554 27.8661 11.5899C27.6317 11.8243 27.5 12.1422 27.5 12.4738V18.75H22.5C21.5054 18.75 20.5516 19.1451 19.8484 19.8484C19.1451 20.5516 18.75 21.5054 18.75 22.5V27.5H6.25C5.25544 27.5 4.30161 27.1049 3.59835 26.4017C2.89509 25.6984 2.5 24.7446 2.5 23.75V6.25C2.5 5.25544 2.89509 4.30161 3.59835 3.59835C4.30161 2.89509 5.25544 2.5 6.25 2.5H17.5525C17.884 2.5 18.202 2.3683 18.4364 2.13388C18.6708 1.89946 18.8025 1.58152 18.8025 1.25C18.8025 0.918479 18.6708 0.600537 18.4364 0.366117C18.202 0.131696 17.884 0 17.5525 0L6.25 0C4.59301 0.00198482 3.00445 0.661103 1.83277 1.83277C0.661103 3.00445 0.00198482 4.59301 0 6.25L0 23.75C0.00198482 25.407 0.661103 26.9956 1.83277 28.1672C3.00445 29.3389 4.59301 29.998 6.25 30H20.4288C21.2499 30.0023 22.0633 29.8418 22.822 29.5277C23.5807 29.2136 24.2696 28.7521 24.8488 28.17L28.1688 24.8475C28.7509 24.2686 29.2125 23.58 29.5269 22.8215C29.8412 22.063 30.002 21.2498 30 20.4288V12.4738C30 12.1422 29.8683 11.8243 29.6339 11.5899C29.3995 11.3554 29.0815 11.2238 28.75 11.2238ZM23.0813 26.4025C22.5788 26.9038 21.9433 27.2508 21.25 27.4025V22.5C21.25 22.1685 21.3817 21.8505 21.6161 21.6161C21.8505 21.3817 22.1685 21.25 22.5 21.25H27.4063C27.2516 21.9419 26.905 22.5762 26.4063 23.08L23.0813 26.4025Z" fill="#70C63B" />
  </g>
  <defs>
    <clipPath id="clip0_2034_2547">
      <rect width="30" height="30" fill="white" />
    </clipPath>
  </defs>
</svg>