<svg width="30" height="30" viewBox="0 0 30 30" fill="none" xmlns="http://www.w3.org/2000/svg">
  <g clip-path="url(#clip0_2044_2525)">
    <path d="M24.9375 6.92052L20.58 2.56302C19.7695 1.74812 18.8054 1.10205 17.7435 0.662198C16.6817 0.222348 15.5431 -0.00254992 14.3938 0.000519276H8.75C7.09301 0.0025041 5.50445 0.661622 4.33277 1.83329C3.1611 3.00497 2.50198 4.59353 2.5 6.25052V23.7505C2.50198 25.4075 3.1611 26.9961 4.33277 28.1677C5.50445 29.3394 7.09301 29.9985 8.75 30.0005H21.25C22.907 29.9985 24.4956 29.3394 25.6672 28.1677C26.8389 26.9961 27.498 25.4075 27.5 23.7505V13.1068C27.5031 11.9574 27.2782 10.8189 26.8383 9.757C26.3985 8.69514 25.7524 7.73105 24.9375 6.92052ZM23.17 8.68802C23.5513 9.08103 23.8795 9.52228 24.1462 10.0005H18.75C18.4185 10.0005 18.1005 9.86882 17.8661 9.6344C17.6317 9.39998 17.5 9.08204 17.5 8.75052V3.35427C17.9782 3.621 18.4195 3.94921 18.8125 4.33052L23.17 8.68802ZM25 23.7505C25 24.7451 24.6049 25.6989 23.9017 26.4022C23.1984 27.1054 22.2446 27.5005 21.25 27.5005H8.75C7.75544 27.5005 6.80161 27.1054 6.09835 26.4022C5.39509 25.6989 5 24.7451 5 23.7505V6.25052C5 5.25596 5.39509 4.30213 6.09835 3.59887C6.80161 2.89561 7.75544 2.50052 8.75 2.50052H14.3938C14.6 2.50052 14.7975 2.54052 15 2.55927V8.75052C15 9.74508 15.3951 10.6989 16.0983 11.4022C16.8016 12.1054 17.7554 12.5005 18.75 12.5005H24.9412C24.96 12.703 25 12.9005 25 13.1068V23.7505ZM20.905 16.6393C21.1332 16.8794 21.2568 17.2003 21.2486 17.5315C21.2404 17.8626 21.1011 18.177 20.8612 18.4055L16.375 22.673C15.6698 23.3671 14.7189 23.7544 13.7294 23.7504C12.7399 23.7464 11.7921 23.3515 11.0925 22.6518L9.1675 20.9343C8.91985 20.7135 8.77006 20.4034 8.75107 20.0721C8.74167 19.9081 8.76467 19.7438 8.81874 19.5887C8.87282 19.4336 8.95692 19.2906 9.06625 19.168C9.17558 19.0454 9.30798 18.9455 9.45591 18.8741C9.60384 18.8026 9.76439 18.761 9.92841 18.7516C10.2596 18.7326 10.5849 18.846 10.8325 19.0668L12.8138 20.8343C12.9272 20.9616 13.0655 21.0645 13.2201 21.1364C13.3747 21.2083 13.5425 21.2478 13.7129 21.2525C13.8834 21.2572 14.0531 21.2269 14.2114 21.1636C14.3698 21.1003 14.5135 21.0052 14.6337 20.8843L19.1338 16.5955C19.2527 16.4817 19.393 16.3926 19.5466 16.3332C19.7001 16.2738 19.8639 16.2453 20.0285 16.2494C20.193 16.2534 20.3552 16.29 20.5056 16.3569C20.656 16.4238 20.7918 16.5198 20.905 16.6393Z" fill="#1D72D2" />
  </g>
  <defs>
    <clipPath id="clip0_2044_2525">
      <rect width="30" height="30" fill="white" />
    </clipPath>
  </defs>
</svg>