<svg width="30" height="30" viewBox="0 0 30 30" fill="none" xmlns="http://www.w3.org/2000/svg">
  <g clip-path="url(#clip0_2044_2535)">
    <path d="M29.634 27.8657L28.2878 26.5194L26.1253 24.3607L29.6115 20.8744C29.7599 20.7258 29.8685 20.5422 29.9271 20.3405C29.9858 20.1389 29.9927 19.9257 29.9473 19.7206C29.9018 19.5156 29.8054 19.3253 29.667 19.1674C29.5286 19.0094 29.3526 18.8889 29.1553 18.8169L17.944 14.7494C17.4974 14.588 17.0141 14.5572 16.5506 14.6604C16.0871 14.7637 15.6627 14.9968 15.3268 15.3325C14.991 15.6682 14.7577 16.0926 14.6543 16.556C14.5508 17.0195 14.5815 17.5028 14.7428 17.9494L18.8215 29.1607C18.8931 29.3582 19.0134 29.5344 19.1711 29.6732C19.3288 29.8119 19.519 29.9086 19.724 29.9544C19.8131 29.9738 19.9041 29.9835 19.9953 29.9832C20.3268 29.9831 20.6446 29.8514 20.879 29.6169L24.3615 26.1244L26.5203 28.2832L27.8665 29.6294C28.1023 29.8571 28.418 29.9831 28.7458 29.9803C29.0735 29.9774 29.387 29.846 29.6188 29.6142C29.8505 29.3825 29.982 29.0689 29.9849 28.7412C29.9877 28.4134 29.8617 28.0977 29.634 27.8619V27.8657ZM20.5003 26.4557L17.0953 17.0932L26.4578 20.4982L20.5003 26.4557Z" fill="#ECC744" />
    <path d="M12.5 25C10.0277 25 7.61099 24.2669 5.55538 22.8934C3.49976 21.5199 1.89761 19.5676 0.951512 17.2836C0.00541605 14.9995 -0.242126 12.4861 0.24019 10.0614C0.722505 7.63661 1.91301 5.40933 3.66117 3.66117C5.40933 1.91301 7.63661 0.722505 10.0614 0.24019C12.4861 -0.242126 14.9995 0.00541605 17.2836 0.951512C19.5676 1.89761 21.5199 3.49976 22.8934 5.55538C24.2669 7.61099 25 10.0277 25 12.5C25 12.8315 24.8683 13.1495 24.6339 13.3839C24.3995 13.6183 24.0815 13.75 23.75 13.75C23.4185 13.75 23.1005 13.6183 22.8661 13.3839C22.6317 13.1495 22.5 12.8315 22.5 12.5C22.5 10.5222 21.9135 8.58879 20.8147 6.9443C19.7159 5.29981 18.1541 4.01809 16.3268 3.26121C14.4996 2.50433 12.4889 2.3063 10.5491 2.69215C8.60929 3.07801 6.82746 4.03041 5.42894 5.42894C4.03041 6.82746 3.07801 8.60929 2.69215 10.5491C2.3063 12.4889 2.50433 14.4996 3.26121 16.3268C4.01809 18.1541 5.29981 19.7159 6.9443 20.8147C8.58879 21.9135 10.5222 22.5 12.5 22.5C12.8315 22.5 13.1495 22.6317 13.3839 22.8661C13.6183 23.1005 13.75 23.4185 13.75 23.75C13.75 24.0815 13.6183 24.3995 13.3839 24.6339C13.1495 24.8683 12.8315 25 12.5 25Z" fill="#ECC744" />
    <path d="M10.1049 19.5252C9.94064 19.5253 9.77796 19.4931 9.62617 19.4302C8.48724 18.9572 7.48253 18.2106 6.70103 17.2566C5.91952 16.3025 5.38534 15.1705 5.14578 13.9607C4.90623 12.751 4.96869 11.5008 5.32765 10.3209C5.68661 9.14107 6.33098 8.06792 7.20369 7.19655C8.0764 6.32517 9.15053 5.68244 10.3309 5.32529C11.5114 4.96814 12.7616 4.90759 13.971 5.149C15.1804 5.3904 16.3116 5.92632 17.2645 6.70928C18.2173 7.49224 18.9624 8.49809 19.4337 9.63775C19.4997 9.79001 19.5348 9.9539 19.5368 10.1199C19.5389 10.2858 19.5079 10.4505 19.4456 10.6044C19.3833 10.7582 19.291 10.8981 19.174 11.0159C19.0571 11.1337 18.9179 11.227 18.7645 11.2904C18.6111 11.3538 18.4467 11.3861 18.2807 11.3852C18.1147 11.3844 17.9506 11.3505 17.7978 11.2856C17.6451 11.2206 17.5068 11.1259 17.3911 11.007C17.2753 10.888 17.1844 10.7472 17.1237 10.5927C16.8087 9.83366 16.3116 9.16391 15.6761 8.64275C15.0407 8.12159 14.2866 7.76509 13.4806 7.60479C12.6746 7.4445 11.8414 7.48535 11.055 7.72374C10.2685 7.96213 9.55289 8.3907 8.97151 8.97154C8.39012 9.55237 7.96086 10.2676 7.72172 11.0538C7.48258 11.8401 7.44093 12.6731 7.60045 13.4793C7.75997 14.2855 8.11575 15.0399 8.63631 15.6759C9.15686 16.3118 9.82614 16.8096 10.5849 17.1252C10.8523 17.2359 11.0731 17.4359 11.2094 17.6912C11.3458 17.9464 11.3894 18.2411 11.3328 18.5249C11.2761 18.8087 11.1228 19.0641 10.8988 19.2474C10.6749 19.4307 10.3943 19.5307 10.1049 19.5302V19.5252Z" fill="#ECC744" />
  </g>
  <defs>
    <clipPath id="clip0_2044_2535">
      <rect width="30" height="30" fill="white" />
    </clipPath>
  </defs>
</svg>